<?xml version="1.0" encoding="UTF-8"?>
<svg id="Camada_1" xmlns="http://www.w3.org/2000/svg" version="1.1" xmlns:xlink="http://www.w3.org/1999/xlink" viewBox="0 0 259.8 137">
  <!-- Generator: Adobe Illustrator 29.2.1, SVG Export Plug-In . SVG Version: 2.1.0 Build 116)  -->
  <defs>
    <style>
      .st0 {
        fill: #cacaca;
      }

      .st1 {
        fill: #00b63e;
      }

      .st2 {
        fill: #b8b8b8;
      }

      .st3 {
        fill: #0046a3;
      }

      .st4 {
        isolation: isolate;
      }
    </style>
  </defs>
  <path d="M106.1,35h11.1v47.8c0,18.5-20.9,20.1-30.8,6.6l8.5-8.2c3,6.9,10.7,7.9,11.1.4l.2-46.5Z"/>
  <polygon points="130.8 35 160.1 35 160.1 46.8 142.2 46.8 142.1 57.5 160.1 57.5 160.1 69.3 141.8 69.3 141.9 96.9 130.8 96.9 130.8 35"/>
  <path d="M188.2,35h-18.7v61.9h11.5v-26.4l7.8-.5c21.4-.3,21.8-35.7-.6-35.1ZM188.8,58.9l-8.1.5v-13h7.7c6.5,0,8.3,12.6.4,12.6Z"/>
  <polygon points="247.4 35 215.3 35 215.6 96.9 247.7 96.9 247.7 85.5 226.4 85.4 226.5 68.9 247.7 68.8 247.7 57.3 226.6 57.6 226.4 46.3 247.7 46.3 247.4 35"/>
  <g>
    <path class="st0" d="M46.8,24l3.2,2.4v12.3c0,8,6.6,13.5,12.9,13.5h14l9.7,10.1h-25.1c-7.9,0-13.7-7-13.7-14.5l-1-23.8Z"/>
    <path class="st1" d="M86.7,65.2l-2.4,2.6-13.5.2c-7.9.5-12.7,6.6-13.1,12.5-.1,3,0,12,0,12l-10.9,10.5v-24.2c0-7.8,7.1-13.6,14.7-13.6h25.2Z"/>
    <path class="st3" d="M3.4,75.6l2.6-2.8,11.9.2c8.2-.5,13.8-7.1,14.2-12.3l.3-13.7,11.1-9.3-.4,24.5c-.1,7.6-7.5,13.2-15.3,13.1H3.4Z"/>
    <path class="st2" d="M43.5,115.6l-2.7-2.3-.3-12.6c-.6-7.4-6.8-11.9-12.9-12.2-3.1-.1-12.4,0-12.4,0l-10.8-10h24.8c7.9-.2,13.9,6.4,14,13.6l.3,23.5Z"/>
  </g>
  <g class="st4">
    <path d="M92.8,106.9h1.3v4.6c0,.7,0,1.2-.2,1.5-.1.3-.3.5-.6.7-.3.2-.6.3-1,.3-.8,0-1.4-.3-1.9-1l.9-.9c.2.2.4.4.5.5.1,0,.3.1.4.1s.2,0,.3-.2c0-.1.1-.4.1-.8v-4.8Z"/>
    <path d="M95.6,106.9h1.3v4.5c0,.4,0,.7.1.8,0,.2.2.3.3.4.2,0,.3.1.6.1s.4,0,.6-.2c.2-.1.3-.2.3-.4,0-.2,0-.5,0-.9v-4.3h1.3v4.1c0,.7,0,1.2-.1,1.4,0,.3-.2.5-.4.8-.2.2-.5.4-.8.6-.3.1-.6.2-1,.2s-.9-.1-1.3-.3c-.4-.2-.6-.5-.8-.9s-.2-.9-.2-1.8v-4.1Z"/>
    <path d="M105.4,107.8l-1,.9c-.3-.5-.7-.7-1-.7s-.3,0-.4.1c-.1,0-.2.2-.2.3s0,.2.1.3c.1.1.4.4,1,.9.5.4.8.7.9.8.3.3.5.5.6.8.1.2.2.5.2.8,0,.6-.2,1-.6,1.4s-.9.6-1.5.6-.9-.1-1.3-.4c-.4-.2-.7-.6-.9-1.1l1.1-.7c.3.6.7.9,1.1.9s.4,0,.6-.2c.2-.1.2-.3.2-.5s0-.3-.2-.5c-.1-.2-.4-.4-.8-.7-.7-.6-1.2-1.1-1.5-1.4-.2-.3-.3-.7-.3-1,0-.5.2-.9.5-1.2.4-.3.8-.5,1.3-.5s.7,0,1,.2c.3.2.6.4,1,.9Z"/>
    <path d="M106.1,106.9h3.8v1.3h-1.3v5.6h-1.3v-5.6h-1.2v-1.3Z"/>
    <path d="M110.7,106.9h1.3v6.9h-1.3v-6.9Z"/>
    <path d="M119.8,108.1l-.9.9c-.6-.7-1.3-1-2.1-1s-1.2.2-1.7.7c-.5.5-.7,1-.7,1.7s0,.9.3,1.2c.2.4.5.6.8.8.4.2.8.3,1.2.3s.7,0,1-.2c.3-.1.7-.4,1-.8l.9.9c-.5.5-1,.8-1.4,1-.5.2-1,.3-1.5.3-1.1,0-1.9-.3-2.6-1-.7-.7-1-1.6-1-2.6s.2-1.3.5-1.8c.3-.5.8-1,1.3-1.3s1.2-.5,1.9-.5,1.1.1,1.6.4c.5.2,1,.6,1.4,1ZM116,113.7h.8v.2c.2,0,.3.1.4.3s.2.3.2.4c0,.3-.1.5-.3.7s-.5.3-.9.3-.7,0-1-.2l.2-.6c.2,0,.4.1.7.1s.3,0,.4,0c0,0,.1-.1.1-.2s0-.1,0-.2c0,0-.2,0-.3,0h-.3s.2-.5.2-.5Z"/>
    <path d="M123,106.9h1.3l2.6,6.9h-1.4l-.5-1.4h-2.8l-.6,1.4h-1.4l2.7-6.9ZM123.7,108.7l-.9,2.4h1.8l-.9-2.4Z"/>
    <path d="M130.7,106.9h3.4v1.3h-2.1v1.3h2.1v1.3h-2.1v3.1h-1.3v-6.9Z"/>
    <path d="M135.3,106.9h3.8v1.3h-2.5v1.2h2.5v1.3h-2.5v1.8h2.5v1.3h-3.8v-6.9Z"/>
    <path d="M140.3,106.9h1.6c1,0,1.7.1,2.2.4.5.2.9.7,1.2,1.2s.5,1.2.5,2,0,1-.3,1.5c-.2.4-.4.8-.7,1.1-.3.3-.6.5-1,.6-.4.1-1,.2-1.9.2h-1.6v-6.9ZM141.6,108.2v4.4h.6c.6,0,1,0,1.3-.2.3-.1.5-.4.7-.7.2-.3.3-.7.3-1.2,0-.7-.2-1.3-.6-1.7-.4-.4-1-.5-1.8-.5h-.4Z"/>
    <path d="M147,106.9h3.8v1.3h-2.5v1.2h2.5v1.3h-2.5v1.8h2.5v1.3h-3.8v-6.9Z"/>
    <path d="M152.1,106.9h1.4c.8,0,1.3,0,1.6.2.3.1.6.4.8.7.2.3.3.7.3,1.1s-.1.8-.3,1.1c-.2.3-.5.5-1,.7l1.6,3.1h-1.4l-1.5-2.9h-.1v2.9h-1.3v-6.9ZM153.4,109.6h.4c.4,0,.7,0,.9-.2s.2-.3.2-.5,0-.3-.1-.4c0-.1-.2-.2-.3-.2-.1,0-.4,0-.7,0h-.4v1.4Z"/>
    <path d="M159.6,106.9h1.3l2.6,6.9h-1.4l-.5-1.4h-2.8l-.6,1.4h-1.4l2.7-6.9ZM160.3,108.7l-.9,2.4h1.8l-.9-2.4Z"/>
    <path d="M164.6,106.9h1.3v5.6h1.9v1.3h-3.2v-6.9Z"/>
    <path d="M171.5,106.9h3.8v1.3h-2.5v1.2h2.5v1.3h-2.5v1.8h2.5v1.3h-3.8v-6.9Z"/>
    <path d="M177.1,106.9h1.3l1.6,4.8,1.6-4.8h1.3l1.2,6.9h-1.3l-.7-4.4-1.5,4.4h-1.2l-1.4-4.4-.8,4.4h-1.3l1.2-6.9Z"/>
    <path d="M187.8,106.9h1.4c.8,0,1.3,0,1.6.2.3.1.6.4.8.7.2.3.3.7.3,1.1s-.1.9-.4,1.2c-.3.3-.6.5-1,.7-.3,0-.7.1-1.4.1v2.9h-1.3v-6.9ZM189.1,109.6h.4c.3,0,.6,0,.7,0,.1,0,.2-.1.3-.2,0-.1.1-.2.1-.4,0-.3-.1-.5-.3-.6-.1,0-.4-.1-.8-.1h-.4v1.4Z"/>
    <path d="M193.1,106.9h3.8v1.3h-2.5v1.2h2.5v1.3h-2.5v1.8h2.5v1.3h-3.8v-6.9Z"/>
    <path d="M198.2,106.9h1.4c.8,0,1.3,0,1.6.2.3.1.6.4.8.7.2.3.3.7.3,1.1s-.1.8-.3,1.1c-.2.3-.5.5-1,.7l1.6,3.1h-1.4l-1.5-2.9h-.1v2.9h-1.3v-6.9ZM199.5,109.6h.4c.4,0,.7,0,.9-.2s.2-.3.2-.5,0-.3-.1-.4c0-.1-.2-.2-.3-.2-.1,0-.4,0-.7,0h-.4v1.4Z"/>
    <path d="M203.7,106.9h1.3l2.9,4.5v-4.5h1.3v6.9h-1.3l-2.9-4.5v4.5h-1.3v-6.9Z"/>
    <path d="M212.8,106.9h1.3l2.6,6.9h-1.4l-.5-1.4h-2.8l-.6,1.4h-1.4l2.7-6.9ZM213.5,108.7l-.9,2.4h1.8l-.9-2.4Z"/>
    <path d="M218.5,106.9h1.3l1.6,4.8,1.6-4.8h1.3l1.2,6.9h-1.3l-.7-4.4-1.5,4.4h-1.2l-1.4-4.4-.8,4.4h-1.3l1.2-6.9Z"/>
    <path d="M226.4,113.8v-6.9h1.1c.6,0,1.1,0,1.4.1.4.1.7.3,1,.6s.4.6.4,1.1,0,.5-.2.7c-.1.2-.3.4-.5.6.4.2.7.4.9.7s.3.6.3,1-.1.7-.3,1.1c-.2.3-.5.6-.8.7-.3.2-.8.2-1.3.2h-1.9ZM227.7,108.2v1.5h.3c.3,0,.6,0,.7-.2.2-.1.2-.3.2-.5s0-.4-.2-.5c-.1-.1-.4-.2-.7-.2h-.3ZM227.7,110.8v1.8h.3c.5,0,.9,0,1.1-.2.2-.1.3-.3.3-.6s-.1-.5-.3-.7-.6-.3-1.1-.3h-.3Z"/>
    <path d="M231.9,106.9h1.3v4.5c0,.4,0,.7.1.8,0,.2.2.3.3.4.2,0,.3.1.6.1s.4,0,.6-.2c.2-.1.3-.2.3-.4,0-.2,0-.5,0-.9v-4.3h1.3v4.1c0,.7,0,1.2-.1,1.4,0,.3-.2.5-.4.8-.2.2-.5.4-.8.6-.3.1-.6.2-1,.2s-.9-.1-1.3-.3c-.4-.2-.6-.5-.8-.9-.2-.3-.2-.9-.2-1.8v-4.1Z"/>
    <path d="M244.4,108.1l-.9.9c-.6-.7-1.3-1-2.1-1s-1.2.2-1.7.7c-.4.5-.7,1-.7,1.7s.1.9.3,1.2c.2.4.5.6.8.8.4.2.8.3,1.2.3s.7,0,1-.2c.3-.1.7-.4,1-.8l.9.9c-.5.5-1,.8-1.4,1-.5.2-1,.3-1.5.3-1.1,0-1.9-.3-2.6-1-.7-.7-1-1.6-1-2.6s.2-1.3.5-1.8.8-1,1.3-1.3c.6-.3,1.2-.5,1.9-.5s1.1.1,1.6.4,1,.6,1.4,1Z"/>
    <path d="M248.8,106.7c1,0,1.8.4,2.5,1.1.7.7,1.1,1.6,1.1,2.6s-.3,1.9-1,2.6c-.7.7-1.5,1-2.5,1s-1.9-.4-2.6-1.1-1-1.6-1-2.6.2-1.3.5-1.8.8-1,1.3-1.3c.6-.3,1.2-.5,1.8-.5ZM248.8,108c-.6,0-1.2.2-1.6.7-.4.4-.7,1-.7,1.7s.3,1.4.8,1.8c.4.3.9.5,1.5.5s1.1-.2,1.6-.7.7-1,.7-1.7-.2-1.2-.7-1.7c-.4-.5-1-.7-1.6-.7Z"/>
  </g>
</svg>